<svg width="829" height="786" viewBox="0 0 829 786" fill="none" xmlns="http://www.w3.org/2000/svg">
<path d="M792.821 442.267C789.559 439.104 659.078 313.888 651.892 306.5L631.392 334L596.997 371.157C596.997 371.157 540.215 430.92 534.042 437.956C519.915 453.853 510.177 464.52 504.666 478.468C498.236 494.7 495.877 501.488 496.263 522.489C496.704 546.416 502.01 556.074 512.35 574.892L512.424 575.027C517.838 584.835 530.056 598.695 539.587 605.8C545 609.76 558.581 616.433 564.376 617.877C582.082 622.327 595.017 622.924 606.601 619.727C610.748 618.696 615.21 617.42 616.699 617.035C618.189 616.768 624.75 613.425 631.305 609.723C641.663 603.803 644.295 601.725 652.245 592.626L661.242 582.315L669.519 590.996C677.796 599.676 687.545 607.017 694.545 610.111C696.591 611.029 699.822 612.521 701.547 613.325C711.563 617.796 721.314 619.526 736.367 619.13C753.986 618.806 764.822 615.622 778.016 607.024C799.23 593.145 813.7 572.706 822.686 544.252C824.702 538.008 826.541 534.765 826.244 518.656C826.01 499.801 823.944 496.841 818.992 482.846C814.486 470.396 802.721 451.992 792.821 442.267Z" fill="#E1CFBB"/>
<path d="M197.002 1.15374C225.882 6.01073 239.849 10.4942 261.391 22.0762C279.856 32.0393 290.982 40.6324 307.317 57.8187L319.863 70.8952L331.581 58.3168C337.973 51.3427 346.021 43.6213 349.217 41.1306C352.531 38.6397 355.372 36.2736 355.727 35.8999C358.449 32.4129 375.612 22.5743 393.012 14.6039C396.089 13.1094 408.162 9.12414 414.672 7.2561C434.676 1.77642 470.303 0.531104 489.715 4.64086C542.86 15.9738 585.708 48.6028 611.037 96.7994C617.311 108.63 622.874 122.703 625.596 133.04C626.425 136.153 627.49 140.014 627.964 141.758C631.396 153.215 632.106 161.31 631.988 185.968C631.988 206.393 631.514 213.989 629.857 220.839C628.792 225.571 627.372 231.55 626.898 233.916C620.625 261.812 595.769 302.038 567.48 330.308C561.325 336.286 543.57 354.593 527.946 370.783C491.254 408.891 375.691 532.131 340.892 567.5C331.509 577.036 321.575 590 320.392 590C319.208 590 304.949 568.55 288.852 552.111C272.754 535.672 259.143 521.973 258.669 521.599C258.196 521.225 244.466 507.526 228.368 491.087C212.153 474.648 193.569 455.843 187.059 449.367C180.549 442.89 167.529 429.69 158.06 419.976C148.591 410.386 135.571 397.185 129.061 390.709C122.669 384.234 109.294 370.907 99.4698 360.944C89.7645 350.982 76.6259 337.781 70.471 331.553C40.9984 301.789 37.8026 298.053 27.3866 280.866C15.3136 261.19 6.55468 238.897 1.58341 215.857C-0.54713 205.521 -0.547132 161.186 1.70177 151.098C10.8158 109.128 34.962 68.1554 65.7365 42.0023C91.6581 20.2082 118.881 7.38073 153.325 1.27835C162.558 -0.340642 187.651 -0.465263 197.002 1.15374Z" fill="#E1CFBB"/>
<path d="M446.571 529.935C451.236 524.567 442.331 544.136 450.226 560.292C452.444 564.832 453.012 567.998 460.485 582.296C470.433 601.33 483.287 614.965 486.383 619.341C498.65 636.397 502.443 639.933 506.785 648.163C509.099 653.121 509.722 655.594 510.966 660.539C512.584 666.967 514.216 685.755 513.416 692.826C512.738 698.964 511.326 707.095 510.4 710.031C510.031 711.374 509.44 713.354 509.128 714.537C508.887 715.714 507.571 719.073 506.21 721.975C504.928 724.946 503.892 727.508 503.915 727.736C504.022 728.801 497.287 739.003 492.559 744.855C487.719 751.025 479.316 759.627 478.036 759.755C477.751 759.783 476.745 760.499 475.826 761.36C473.917 763.087 465.226 768.107 460.559 770.265C457.813 771.539 454.69 772.621 446.332 775.225C438.742 777.599 421.711 778.23 412.548 776.383C403.4 774.687 399.551 773.537 393.549 770.988C367.447 759.929 348.185 737.582 340.011 709.053C338.203 702.474 336.703 686.799 337.175 680.759C338.275 667.358 343.002 653.16 356.527 632.986C370.052 612.811 446.571 529.935 446.571 529.935Z" fill="#E1CFBB"/>
</svg>
